<?xml version="1.0" encoding="UTF-8" standalone="no"?>
<svg
   enable-background="new 0 0 580 580"
   height="580"
   viewBox="0 0 580 580"
   width="580"
   version="1.1"
   id="svg510"
   sodipodi:docname="whater_wheel.svg"
   inkscape:version="1.2 (dc2aedaf03, 2022-05-15)"
   xmlns:inkscape="http://www.inkscape.org/namespaces/inkscape"
   xmlns:sodipodi="http://sodipodi.sourceforge.net/DTD/sodipodi-0.dtd"
   xmlns="http://www.w3.org/2000/svg"
   xmlns:svg="http://www.w3.org/2000/svg">
  <defs
     id="defs514" />
  <sodipodi:namedview
     id="namedview512"
     pagecolor="#ffffff"
     bordercolor="#000000"
     borderopacity="0.25"
     inkscape:showpageshadow="2"
     inkscape:pageopacity="0.0"
     inkscape:pagecheckerboard="0"
     inkscape:deskcolor="#d1d1d1"
     showgrid="false"
     inkscape:zoom="1.4431034"
     inkscape:cx="289.65352"
     inkscape:cy="290.34648"
     inkscape:window-width="1920"
     inkscape:window-height="1017"
     inkscape:window-x="-8"
     inkscape:window-y="-8"
     inkscape:window-maximized="1"
     inkscape:current-layer="svg510" />
  <path
     d="m78.411 478.928c8.833-2.73 23.02-12.547 36.387-13.567 13.244-1.125 27.864 8.771 42.819 7.124 14.81-1.983 30.344-15.606 45.508-17.448 14.754-1.98 29.014 7.713 43.958 6.544 15.159-1.305 29.591-12.746 45.835-13.978 16.013-1.27 33.309 8.076 49.633 6.484 16.014-1.862 30.128-14.877 46.84-16.567 16.774-1.634 36.31 7.978 52.781 6.728 16.215-1.525 31.996-13.75 43.837-15.277 11.55-1.621 18.621 5.308 25.746 6.181 7.008.824 12.267.566 16.205-1.051l-2.931-31.164c-3.938 1.619-9.197 1.874-16.205 1.051-7.131-.933-14.19-7.742-25.752-6.241-11.842 1.529-27.622 13.751-43.836 15.275-16.478 1.196-35.996-8.243-52.776-6.665-12.001 1.215-22.662 8.267-33.649 12.836l-16.727-39.608c33.99-13.565 61.652-38.611 78.613-71.45 4.535-8.781 8.166-17.866 10.897-27.142l36.449 9.268c.077.02.154.029.231.029.263 0 .518-.111.698-.312l22.125-24.627c.235-.262.305-.632.18-.961s-.424-.56-.772-.6l-54.005-6.084c2.815-21.79.849-44.116-6.024-65.671-7.063-22.154-18.818-41.97-34.489-58.463l26.176-26.133c.247-.247.337-.61.233-.943l-9.835-31.611c-.104-.336-.388-.585-.734-.646-.344-.061-.697.077-.91.357l-32.668 43.024c-1.264-.969-2.53-1.936-3.828-2.869-26.144-18.801-56.899-28.739-88.941-28.739-11.257 0-22.47 1.266-33.48 3.758l-9.828-38.299-38.821-9.162 22.793 55.773c-42.514 17.945-73.234 53.654-86.159 95.508l-37.93-10.853c-.334-.094-.696.002-.938.255l-22.847 23.959c-.242.254-.323.623-.208.956.115.332.406.572.754.622l55.977 7.996c-3.232 22.129-1.625 45.3 5.613 68.001 6.772 21.239 17.853 40.334 32.564 56.41l-28.763 27.794c-.251.242-.347.604-.249.939l9.318 31.768c.099.337.378.591.723.657.06.012.119.017.178.017.285 0 .559-.13.738-.358l35.184-44.802c2.078 1.663 4.186 3.296 6.361 4.86 26.145 18.801 56.899 28.738 88.941 28.738 11.493 0 22.939-1.316 34.171-3.914l9.42 35.02c-11.128-2.205-22.353-6.059-33.009-5.215-16.255 1.114-30.682 12.616-45.84 13.92-14.949 1.111-29.188-8.349-43.953-6.486-15.148 2.021-30.709 15.347-45.508 17.45-14.955 1.645-29.577-8.251-42.819-7.127-13.366 1.021-27.554 10.837-36.387 13.566-8.849 2.556-14.52 3.267-16.786 2.113l2.931 31.166c2.271 1.148 7.941.439 16.79-2.114zm331.845-173.09c-16.417 31.788-43.204 56.024-76.117 69.137l-45.314-107.308c8.649-2.761 15.238-9.005 18.716-16.691l113.204 28.782c-2.637 8.911-6.131 17.64-10.489 26.08zm9.458-112.286c6.656 20.873 8.555 42.494 5.816 63.593l-115.798-13.046c.951-4.905.725-10.106-.897-15.192-1.109-3.479-2.799-6.634-4.918-9.406l82.587-82.452c14.81 15.708 26.306 34.848 33.21 56.503zm-140.233-102.543c33.452 0 64.745 11.15 89.832 30.476l-70.464 92.801c-5.352-4.334-12.125-6.865-19.398-6.865-1.074 0-2.145.078-3.211.19l-28.992-112.985c10.603-2.389 21.396-3.617 32.233-3.617zm-57.443 11.699l44.042 107.766c-6.024 2.88-10.929 7.612-14.046 13.648-.486.94-.918 1.898-1.302 2.869l-111.938-32.029c12.511-40.421 42.187-74.904 83.244-92.254zm-82.865 180.297c-7.001-21.959-8.555-44.371-5.428-65.776l115.186 16.455c-.701 4.624-.341 9.38 1.122 13.966 1.021 3.2 2.52 6.137 4.403 8.746l-83.931 81.105c-13.914-15.322-24.739-33.756-31.352-54.496zm140.233 102.542c-34.558 0-66.813-11.9-92.3-32.421l71.976-91.652c5.486 4.825 12.644 7.661 20.354 7.661.837 0 1.672-.039 2.505-.107l30.333 112.766c-10.805 2.483-21.814 3.753-32.868 3.753z"
     fill="param(fill)"
     fill-opacity="param(fill-opacity)"
     stroke="param(outline)"
     stroke-opacity="param(outline-opacity)"
     stroke-width="param(outline-width)"
     id="path506" />
  <path
     d="m529.936 455.096c-3.95 1.496-9.203 1.813-16.211.989-7.125-.871-14.196-7.803-25.746-6.183-11.843 1.528-27.623 13.75-43.837 15.274-16.477 1.195-35.996-8.24-52.775-6.663-16.713 1.691-30.827 14.705-46.841 16.565-16.323 1.596-33.619-7.753-49.633-6.485-16.255 1.113-30.682 12.614-45.84 13.922-14.949 1.109-29.188-8.35-43.953-6.485-15.148 2.017-30.709 15.344-45.508 17.45-14.956 1.642-29.577-8.255-42.82-7.128-13.366 1.021-27.554 10.837-36.386 13.566-8.838 2.672-14.531 3.146-16.792 2.054l2.931 31.165c2.261 1.092 7.954.618 16.792-2.054 8.833-2.731 23.02-12.546 36.386-13.566 13.244-1.127 27.864 8.77 42.82 7.128 14.799-2.106 30.36-15.434 45.508-17.451 14.765-1.863 29.003 7.596 43.953 6.486 15.158-1.308 29.584-12.809 45.84-13.922 16.014-1.268 33.31 8.08 49.633 6.485 16.014-1.86 30.128-14.878 46.841-16.565 16.779-1.578 36.298 7.858 52.775 6.663 16.214-1.524 31.995-13.746 43.837-15.274 11.561-1.503 18.621 5.307 25.752 6.24 7.007.824 12.266.568 16.205-1.047z"
     fill="param(fill)"
     fill-opacity="param(fill-opacity)"
     stroke="param(outline)"
     stroke-opacity="param(outline-opacity)"
     stroke-width="param(outline-width)"
     id="path508" />
  <path
     style="fill:#008080;stroke-width:0.692951"
     d="m 62.071352,480.48539 c -0.178892,-0.52981 -0.820086,-6.7321 -1.424875,-13.78288 -0.604789,-7.05078 -1.250912,-13.52121 -1.43583,-14.37873 -0.308627,-1.43121 -0.08656,-1.55914 2.706413,-1.55914 5.438281,0 15.715518,-3.17414 26.453205,-8.1701 20.109235,-9.35628 23.956045,-9.77058 42.651315,-4.59344 10.80075,2.99097 12.83944,3.34668 19.34879,3.37596 8.87175,0.0399 10.38251,-0.43257 27.71804,-8.66886 7.05078,-3.3499 14.69056,-6.64712 16.9773,-7.32717 6.83314,-2.03209 14.06677,-1.54393 26.67861,1.80039 13.20439,3.50145 21.63862,4.24577 28.411,2.50726 2.4773,-0.63593 9.64209,-3.20302 15.92177,-5.70464 15.75523,-6.27638 20.71208,-7.4522 29.45845,-6.9879 4.04404,0.21468 10.78786,1.26423 16.16906,2.51642 5.07732,1.18147 9.78652,2.14813 10.46491,2.14813 1.09079,0 0.69136,-2.00973 -3.45388,-17.3785 -2.57802,-9.55818 -4.82407,-17.51529 -4.99124,-17.68246 -0.16717,-0.16716 -2.45526,0.14055 -5.08466,0.68381 -13.37347,2.76309 -33.80216,3.56976 -47.05072,1.8579 -26.80032,-3.4629 -55.83908,-15.31912 -74.37511,-30.36657 -2.52681,-2.05125 -3.14207,-2.28481 -3.89272,-1.47776 -0.49036,0.52721 -8.45905,10.62523 -17.70821,22.44005 -19.62845,25.07326 -17.24189,22.1385 -17.66168,21.71871 -0.53233,-0.53233 -9.36924,-30.84761 -9.29384,-31.88277 0.037,-0.50774 6.42503,-7.0038 14.19565,-14.4357 7.77063,-7.4319 14.13284,-13.75729 14.13825,-14.05641 0.006,-0.29911 -2.02167,-2.99939 -4.50464,-6.0006 -17.38015,-21.00778 -29.20019,-47.59025 -33.3242,-74.94392 -1.30791,-8.67507 -1.68152,-27.34536 -0.75449,-37.70403 l 0.55856,-6.24139 -27.86073,-3.96799 c -15.323406,-2.18239 -28.015513,-4.12277 -28.204684,-4.31194 -0.403641,-0.40364 2.555427,-3.70584 14.25775,-15.91107 l 8.586731,-8.95576 19.013993,5.41621 c 10.45769,2.97892 19.13095,5.29395 19.27391,5.14453 0.14296,-0.14944 1.40661,-3.38998 2.80811,-7.20121 13.47293,-36.63812 41.00504,-67.3503 75.35214,-84.05561 4.46585,-2.17204 8.12983,-4.137692 8.14218,-4.368113 0.0123,-0.230421 -4.932,-12.547625 -10.98743,-27.371565 -6.58275,-16.114825 -10.69118,-27.02958 -10.21732,-27.144017 1.05641,-0.255122 35.95517,8.047023 36.54691,8.694229 0.25422,0.278044 2.59011,8.879146 5.19086,19.113563 l 4.72866,18.60803 2.45207,-0.362102 c 1.34863,-0.199155 5.88217,-0.917257 10.07452,-1.59578 9.28467,-1.502704 32.42693,-1.702053 40.88411,-0.35218 25.68748,4.100048 44.49119,11.223701 64.44445,24.414325 4.57347,3.02341 8.56548,5.50345 8.87111,5.51119 0.30564,0.008 7.92189,-9.6848 16.925,-21.538974 10.73115,-14.129436 16.53968,-21.239468 16.86396,-20.642627 0.68559,1.2618 9.65773,30.364801 9.65773,31.326831 0,0.42904 -5.89167,6.66561 -13.0926,13.85906 l -13.09259,13.07899 5.16398,5.97032 c 25.31207,29.26446 38.79896,69.73193 36.209,108.64522 -0.34678,5.21015 -0.53558,9.56791 -0.41957,9.68392 0.11601,0.11602 11.88632,1.49045 26.15624,3.05431 14.26992,1.56386 26.49695,3.05287 27.17118,3.30891 1.00105,0.38016 -0.83655,2.75301 -10.02007,12.93866 -7.32382,8.12301 -11.66511,12.41792 -12.44785,12.31487 -0.66106,-0.087 -8.6935,-2.03597 -17.84989,-4.33095 -9.15639,-2.29498 -17.05484,-4.17269 -17.55212,-4.17269 -0.5235,0 -1.71049,2.49184 -2.81946,5.91886 -10.52671,32.53036 -34.58561,62.58029 -64.92484,81.09207 -6.43899,3.92882 -20.00621,10.69516 -21.44491,10.69516 -0.39922,0 -0.72587,0.43222 -0.72587,0.9605 0,1.07872 15.73236,38.60102 16.51488,39.38863 0.27565,0.27744 4.85805,-1.53705 10.18312,-4.0322 15.552,-7.28717 18.66129,-8.19143 28.04513,-8.15623 6.00158,0.0225 10.10738,0.4954 16.63083,1.91542 18.63849,4.05722 22.92016,4.67819 30.14337,4.37167 8.13208,-0.3451 12.52625,-1.67869 27.43511,-8.32634 14.10675,-6.28999 16.38474,-6.94914 22.71609,-6.5731 4.01748,0.23862 6.78051,0.9295 11.52144,2.88086 7.51044,3.09129 14.86306,4.26611 20.78853,3.32165 2.28674,-0.36448 4.28973,-0.53662 4.45109,-0.38252 0.43982,0.42 3.05928,29.37139 2.6908,29.73986 -0.17495,0.17495 -1.98876,0.63493 -4.0307,1.02218 -5.80204,1.10033 -11.93763,0.16409 -19.74202,-3.0125 -6.3872,-2.59974 -7.4447,-2.82276 -13.51254,-2.8497 -7.69399,-0.0342 -9.82195,0.57818 -23.02328,6.62521 -20.10526,9.20946 -25.98562,9.96295 -45.57887,5.84032 -30.55725,-6.42957 -34.12093,-6.16537 -56.24261,4.16964 -14.68875,6.86242 -18.71524,8.0706 -26.91151,8.075 -5.00215,0.003 -9.24559,-0.58639 -17.67026,-2.45295 -15.41141,-3.41455 -18.57737,-3.92325 -24.41699,-3.92325 -7.21096,0 -13.44554,1.60045 -26.0983,6.69957 -21.12963,8.51533 -24.28776,8.80131 -43.48342,3.93758 -10.349,-2.62219 -13.87653,-3.22697 -18.9523,-3.24931 -8.27065,-0.0364 -11.70403,1.05555 -28.06452,8.9256 -7.4319,3.57504 -15.53942,7.01939 -18.01672,7.6541 -6.53302,1.67384 -13.27866,0.96451 -27.02509,-2.84181 -19.10423,-5.28987 -23.9225,-4.70538 -45.73477,5.54806 -9.816131,4.61433 -15.137252,6.30814 -22.104932,7.03641 -3.257403,0.34046 -4.268954,0.22308 -4.521446,-0.52469 z M 298.44427,384.55641 c 4.49283,-0.58896 9.51382,-1.40952 11.15776,-1.82347 2.74413,-0.69098 2.95571,-0.90128 2.58278,-2.56716 -0.22342,-0.99799 -7.04152,-26.44893 -15.15134,-56.55766 l -14.74514,-54.74313 -5.15253,-0.45427 c -6.18134,-0.545 -9.92667,-1.82623 -14.70976,-5.03208 -1.96782,-1.31894 -3.6185,-2.33912 -3.66817,-2.26708 -0.0497,0.072 -16.23143,20.69495 -35.95948,45.8287 -28.20125,35.92871 -35.72601,45.92785 -35.19945,46.7742 1.36735,2.19775 16.78032,12.08424 25.89582,16.61059 14.62708,7.26316 29.94954,11.97169 46.36187,14.24682 9.29165,1.28804 28.70329,1.28026 38.58764,-0.0154 z m 46.30745,-14.08168 c 29.76257,-14.6107 52.31302,-37.18225 66.89961,-66.96219 5.59137,-11.41532 10.08088,-23.81051 8.78278,-24.24862 -0.46875,-0.15821 -25.64259,-6.55696 -55.94188,-14.21944 -30.29928,-7.66247 -55.55734,-14.05967 -56.12903,-14.216 -0.66791,-0.18264 -1.78246,0.97374 -3.11828,3.23529 -2.80425,4.74762 -8.45849,9.79302 -13.15735,11.74059 -2.12489,0.88072 -3.72503,1.92965 -3.55586,2.33097 9.92355,23.54086 43.07987,101.86901 44.03888,104.03698 0.74463,1.68337 1.60914,3.06066 1.92114,3.06066 0.31199,0 4.92899,-2.14121 10.25999,-4.75824 z M 176.95851,331.80026 c 3.47986,-3.30735 22.44531,-21.58736 42.14543,-40.62224 l 35.81839,-34.60886 -2.00781,-3.55766 c -2.54722,-4.51341 -4.39094,-12.26024 -3.91036,-16.43029 l 0.36646,-3.17985 -57.77143,-8.2402 c -31.77429,-4.53212 -57.92051,-8.09044 -58.1027,-7.90738 -0.18221,0.18306 -0.70085,4.69843 -1.15256,10.03415 -3.09438,36.55217 8.91786,74.83859 32.77472,104.46237 2.68563,3.33483 5.02468,6.06332 5.19789,6.06332 0.17321,0 3.16209,-2.70602 6.64197,-6.01336 z m 249.44771,-79.04638 c 0.78461,-8.30769 0.47978,-24.83358 -0.61165,-33.15948 -3.73822,-28.51669 -14.96237,-54.25379 -33.29731,-76.35103 -2.93622,-3.53874 -5.5707,-6.34519 -5.8544,-6.23656 -0.28369,0.10862 -19.08883,18.63756 -41.78919,41.17541 l -41.27339,40.97792 2.88786,5.65234 c 2.70904,5.30236 2.90504,6.08005 3.16529,12.55965 0.25627,6.38021 0.39024,6.93126 1.75569,7.22131 0.81304,0.17271 18.6288,2.22537 39.59057,4.56148 20.96177,2.3361 45.59618,5.11775 54.74313,6.18144 22.77694,2.6487 20.15847,2.97563 20.6834,-2.58248 z M 252.5074,224.34289 c 2.3086,-4.51642 6.04394,-8.68576 10.1865,-11.37005 2.76138,-1.78931 3.4035,-2.55108 3.116,-3.6966 -0.41317,-1.64621 -43.19568,-106.42705 -43.63338,-106.86475 -0.399,-0.39901 -14.66272,6.81571 -20.33933,10.28782 -22.91133,14.01376 -42.53386,35.71056 -54.59782,60.36931 -5.10713,10.43899 -9.11162,21.13166 -8.22864,21.97188 0.3404,0.32391 25.56514,7.76075 56.05498,16.52631 30.48985,8.76557 55.50879,15.96669 55.59764,16.0025 0.0889,0.0358 0.91869,-1.41608 1.84405,-3.22642 z m 81.53912,-55.69502 c 19.13229,-25.20126 34.82286,-46.32087 34.86793,-46.93248 0.20442,-2.77349 -23.08905,-16.26382 -37.29772,-21.60085 -24.42195,-9.173295 -53.62585,-11.79314 -78.34313,-7.028057 -5.49763,1.059852 -6.20975,1.363699 -6.01026,2.564482 0.12447,0.749198 6.5949,26.192485 14.37873,56.540655 7.78384,30.34816 14.15321,55.29439 14.15417,55.43608 6.9e-4,0.14168 1.95801,0.28457 4.34902,0.31754 5.19189,0.0716 11.23297,1.85142 15.24668,4.492 1.60791,1.05783 3.13613,1.94758 3.39604,1.97722 0.25992,0.0297 16.12626,-20.56534 35.25854,-45.76659 z"
     id="path585" />
  <path
     style="fill:#008080;stroke-width:0.692951"
     d="m 66.899077,532.35962 c -0.150522,-0.47641 -0.855442,-7.33662 -1.56649,-15.24492 l -1.292814,-14.37874 h 3.556245 c 5.548344,0 13.258813,-2.30984 23.307341,-6.98222 20.882371,-9.70991 26.406831,-10.65054 40.410861,-6.88059 15.93051,4.28856 18.71225,4.84364 24.30075,4.84904 7.407,0.007 10.75299,-1.06243 25.9382,-8.29152 22.20754,-10.57215 25.80231,-11.03345 46.04313,-5.90857 9.91513,2.51047 13.48823,3.11828 18.33119,3.11828 7.50135,0 11.37864,-1.00425 25.34011,-6.5633 16.07418,-6.40028 18.13482,-6.9252 27.04781,-6.89012 6.35182,0.025 9.79396,0.51516 20.64905,2.94043 16.67355,3.72525 23.16056,4.19898 30.62826,2.23671 3.0484,-0.80102 8.6613,-2.88841 12.47312,-4.63864 21.53212,-9.88666 24.59366,-10.86401 33.95567,-10.8398 4.67383,0.0121 10.23018,0.83582 22.17443,3.28739 14.76533,3.03061 16.52414,3.25065 23.90681,2.99087 9.25115,-0.32552 13.02559,-1.43267 27.52229,-8.07306 17.84885,-8.17588 22.5722,-8.66012 35.26561,-3.61541 7.76107,3.08446 15.32452,4.14179 21.24124,2.96942 3.96071,-0.7848 3.49523,-2.1067 4.97519,14.12879 1.50117,16.46811 1.63187,15.32772 -1.86574,16.27933 -5.09621,1.38654 -12.57671,0.36391 -21.05527,-2.87839 -8.4486,-3.23084 -13.94517,-4.00658 -19.70178,-2.78052 -2.07078,0.44104 -8.7543,3.01739 -14.85227,5.72523 -16.78938,7.45542 -19.55152,8.29973 -28.41099,8.68449 -7.06613,0.30687 -8.78569,0.0932 -23.56034,-2.92774 -13.09272,-2.67703 -17.23674,-3.25684 -23.21386,-3.24796 -9.06145,0.0135 -12.66257,1.07895 -29.01446,8.58468 -6.62045,3.03887 -14.56691,6.16494 -17.6588,6.94681 -7.30203,1.84653 -12.11981,1.47837 -29.24156,-2.23453 -22.97033,-4.98118 -27.51596,-4.62945 -48.81636,3.77731 -7.05078,2.78278 -14.28295,5.41245 -16.07149,5.84373 -6.45056,1.55542 -13.43856,0.99086 -25.24514,-2.03958 -13.50303,-3.46588 -22.43464,-4.19208 -29.36437,-2.38753 -2.4773,0.64511 -10.273,3.92538 -17.32378,7.2895 -17.51911,8.35885 -20.5777,9.28694 -29.0184,8.80522 -4.93322,-0.28155 -9.63293,-1.20619 -18.05989,-3.55318 -12.59785,-3.50863 -17.80351,-3.94772 -25.44336,-2.14613 -4.04021,0.95275 -7.0264,2.16833 -23.452063,9.54655 -10.029221,4.50502 -22.085717,6.87992 -22.83808,4.49867 z"
     id="path587" />
</svg>
